<svg version="1.1" xmlns="http://www.w3.org/2000/svg" xmlns:xlink="http://www.w3.org/1999/xlink" width="4131.89990234375" height="861"><defs/><g><g transform="translate(-38,-150) scale(1,1)"><rect fill="#C0C0C0" stroke="none" x="1231" y="511" width="616.34375" height="295" opacity="0.2"/></g><g transform="translate(-38,-150) scale(1,1)"><rect fill="#ffaa56" stroke="none" x="1224" y="504" width="616.34375" height="295"/></g><g transform="translate(-38,-150) scale(1,1)"><path fill="none" stroke="#000000" d="M 1224 504 L 1840.34375 504 L 1840.34375 799 L 1224 799 L 1224 504 Z Z" stroke-miterlimit="10"/></g><g transform="translate(-38,-150) scale(1,1)"><path fill="none" stroke="#000000" d="M 1224 529 L 1840.34375 529" stroke-miterlimit="10"/></g><g transform="translate(-38,-150) scale(1,1)"><path fill="none" stroke="#000000" d="M 1224 627 L 1840.34375 627" stroke-miterlimit="10"/></g><g transform="translate(-38,-150) scale(1,1)"><g><path fill="none" stroke="none"/><text fill="#000000" stroke="none" font-family="Arial" font-size="13px" font-style="normal" font-weight="bold" text-decoration="none" x="1511.583251953125" y="523.5">Aspirer</text></g></g><g transform="translate(-38,-150) scale(1,1)"><g><path fill="none" stroke="none"/><text fill="#000000" stroke="none" font-family="Arial" font-size="13px" font-style="normal" font-weight="normal" text-decoration="none" x="1229" y="546.5">#ID: ObjectID</text></g></g><g transform="translate(-38,-150) scale(1,1)"><g><path fill="none" stroke="none"/><text fill="#000000" stroke="none" font-family="Arial" font-size="13px" font-style="normal" font-weight="normal" text-decoration="none" x="1229" y="561.5">#Name: String</text></g></g><g transform="translate(-38,-150) scale(1,1)"><g><path fill="none" stroke="none"/><text fill="#000000" stroke="none" font-family="Arial" font-size="13px" font-style="normal" font-weight="normal" text-decoration="none" x="1229" y="576.5">#DPI: String</text></g></g><g transform="translate(-38,-150) scale(1,1)"><g><path fill="none" stroke="none"/><text fill="#000000" stroke="none" font-family="Arial" font-size="13px" font-style="normal" font-weight="normal" text-decoration="none" x="1229" y="591.5">#Type: boolean</text></g></g><g transform="translate(-38,-150) scale(1,1)"><g><path fill="none" stroke="none"/><text fill="#000000" stroke="none" font-family="Arial" font-size="13px" font-style="normal" font-weight="normal" text-decoration="none" x="1229" y="606.5">#Desvinculado: boolean</text></g></g><g transform="translate(-38,-150) scale(1,1)"><g><path fill="none" stroke="none"/><text fill="#000000" stroke="none" font-family="Arial" font-size="13px" font-style="normal" font-weight="normal" text-decoration="none" x="1229" y="621.5">#NotaHistoria: double</text></g></g><g transform="translate(-38,-150) scale(1,1)"><g><path fill="none" stroke="none"/><text fill="#000000" stroke="none" font-family="Arial" font-size="13px" font-style="normal" font-weight="normal" text-decoration="none" x="1229" y="644.5">«create»+Aspirer(Name: String, DPI: String, Type: boolean, Desvinculado: boolean, NotaHistoria: double)</text></g></g><g transform="translate(-38,-150) scale(1,1)"><g><path fill="none" stroke="none"/><text fill="#000000" stroke="none" font-family="Arial" font-size="13px" font-style="normal" font-weight="normal" text-decoration="none" x="1229" y="659.5">+getName(): String</text></g></g><g transform="translate(-38,-150) scale(1,1)"><g><path fill="none" stroke="none"/><text fill="#000000" stroke="none" font-family="Arial" font-size="13px" font-style="normal" font-weight="normal" text-decoration="none" x="1229" y="674.5">+getDPI(): String</text></g></g><g transform="translate(-38,-150) scale(1,1)"><g><path fill="none" stroke="none"/><text fill="#000000" stroke="none" font-family="Arial" font-size="13px" font-style="normal" font-weight="normal" text-decoration="none" x="1229" y="689.5">+getType(): boolean</text></g></g><g transform="translate(-38,-150) scale(1,1)"><g><path fill="none" stroke="none"/><text fill="#000000" stroke="none" font-family="Arial" font-size="13px" font-style="normal" font-weight="normal" text-decoration="none" x="1229" y="704.5">+getDesvinculado(): boolean</text></g></g><g transform="translate(-38,-150) scale(1,1)"><g><path fill="none" stroke="none"/><text fill="#000000" stroke="none" font-family="Arial" font-size="13px" font-style="normal" font-weight="normal" text-decoration="none" x="1229" y="719.5">+getNotaHistoria(): double</text></g></g><g transform="translate(-38,-150) scale(1,1)"><g><path fill="none" stroke="none"/><text fill="#000000" stroke="none" font-family="Arial" font-size="13px" font-style="normal" font-weight="normal" text-decoration="none" x="1229" y="734.5">+setName(Name: String)</text></g></g><g transform="translate(-38,-150) scale(1,1)"><g><path fill="none" stroke="none"/><text fill="#000000" stroke="none" font-family="Arial" font-size="13px" font-style="normal" font-weight="normal" text-decoration="none" x="1229" y="749.5">+setDPI(DPI: String)</text></g></g><g transform="translate(-38,-150) scale(1,1)"><g><path fill="none" stroke="none"/><text fill="#000000" stroke="none" font-family="Arial" font-size="13px" font-style="normal" font-weight="normal" text-decoration="none" x="1229" y="764.5">+setType(Type: boolean)</text></g></g><g transform="translate(-38,-150) scale(1,1)"><g><path fill="none" stroke="none"/><text fill="#000000" stroke="none" font-family="Arial" font-size="13px" font-style="normal" font-weight="normal" text-decoration="none" x="1229" y="779.5">+setDesvinculado(Desvinculado: boolean)</text></g></g><g transform="translate(-38,-150) scale(1,1)"><g><path fill="none" stroke="none"/><text fill="#000000" stroke="none" font-family="Arial" font-size="13px" font-style="normal" font-weight="normal" text-decoration="none" x="1229" y="794.5">+setNotaHistoria(NotaHistoria: double)</text></g></g><g transform="translate(-38,-150) scale(1,1)"><rect fill="#C0C0C0" stroke="none" x="1023" y="463" width="127.16162109375" height="70" opacity="0.2"/></g><g transform="translate(-38,-150) scale(1,1)"><rect fill="#8282ff" stroke="none" x="1016" y="456" width="127.16162109375" height="70"/></g><g transform="translate(-38,-150) scale(1,1)"><path fill="none" stroke="#000000" d="M 1016 456 L 1143.16162109375 456 L 1143.16162109375 526 L 1016 526 L 1016 456 Z Z" stroke-miterlimit="10"/></g><g transform="translate(-38,-150) scale(1,1)"><path fill="none" stroke="#000000" d="M 1016 494 L 1143.16162109375 494" stroke-miterlimit="10"/></g><g transform="translate(-38,-150) scale(1,1)"><path fill="none" stroke="#000000" d="M 1016 504 L 1143.16162109375 504" stroke-miterlimit="10"/></g><g transform="translate(-38,-150) scale(1,1)"><g><path fill="none" stroke="none"/><text fill="#000000" stroke="none" font-family="Arial" font-size="13px" font-style="normal" font-weight="normal" text-decoration="none" x="1047.42041015625" y="473.5">«interface»</text></g></g><g transform="translate(-38,-150) scale(1,1)"><g><path fill="none" stroke="none"/><text fill="#000000" stroke="none" font-family="Arial" font-size="13px" font-style="normal" font-weight="bold" text-decoration="none" x="1065.850830078125" y="488.5">Nota</text></g></g><g transform="translate(-38,-150) scale(1,1)"><g><path fill="none" stroke="none"/><text fill="#000000" stroke="none" font-family="Arial" font-size="13px" font-style="normal" font-weight="normal" text-decoration="none" x="1021" y="521.5">+calcular()</text></g></g><g transform="translate(-38,-150) scale(1,1)"><rect fill="#C0C0C0" stroke="none" x="55" y="167" width="1032.6357421875" height="220" opacity="0.2"/></g><g transform="translate(-38,-150) scale(1,1)"><rect fill="#38bcff" stroke="none" x="48" y="160" width="1032.6357421875" height="220"/></g><g transform="translate(-38,-150) scale(1,1)"><path fill="none" stroke="#000000" d="M 48 160 L 1080.6357421875 160 L 1080.6357421875 380 L 48 380 L 48 160 Z Z" stroke-miterlimit="10"/></g><g transform="translate(-38,-150) scale(1,1)"><path fill="none" stroke="#000000" d="M 48 185 L 1080.6357421875 185" stroke-miterlimit="10"/></g><g transform="translate(-38,-150) scale(1,1)"><path fill="none" stroke="#000000" d="M 48 238 L 1080.6357421875 238" stroke-miterlimit="10"/></g><g transform="translate(-38,-150) scale(1,1)"><g><path fill="none" stroke="none"/><text fill="#000000" stroke="none" font-family="Arial" font-size="13px" font-style="normal" font-weight="bold" text-decoration="none" x="533.242919921875" y="179.5">Secondary</text></g></g><g transform="translate(-38,-150) scale(1,1)"><g><path fill="none" stroke="none"/><text fill="#000000" stroke="none" font-family="Arial" font-size="13px" font-style="normal" font-weight="normal" text-decoration="none" x="53" y="202.5">-NotaMatematica: double</text></g></g><g transform="translate(-38,-150) scale(1,1)"><g><path fill="none" stroke="none"/><text fill="#000000" stroke="none" font-family="Arial" font-size="13px" font-style="normal" font-weight="normal" text-decoration="none" x="53" y="217.5">-NotaEspanol: double</text></g></g><g transform="translate(-38,-150) scale(1,1)"><g><path fill="none" stroke="none"/><text fill="#000000" stroke="none" font-family="Arial" font-size="13px" font-style="normal" font-weight="normal" text-decoration="none" x="53" y="232.5">-NotaAptitud: double</text></g></g><g transform="translate(-38,-150) scale(1,1)"><g><path fill="none" stroke="none"/><text fill="#000000" stroke="none" font-family="Arial" font-size="13px" font-style="normal" font-weight="normal" text-decoration="none" x="53" y="255.5">«create»+Secondary(Name: String, DPI: String, Type: boolean, Desvinculado: boolean, NotaHistoria: double, NotaMatematica: double, notaEspanol: double, NotaAptitud: double)</text></g></g><g transform="translate(-38,-150) scale(1,1)"><g><path fill="none" stroke="none"/><text fill="#000000" stroke="none" font-family="Arial" font-size="13px" font-style="normal" font-weight="normal" text-decoration="none" x="53" y="270.5">+getNotaMatematica(): double</text></g></g><g transform="translate(-38,-150) scale(1,1)"><g><path fill="none" stroke="none"/><text fill="#000000" stroke="none" font-family="Arial" font-size="13px" font-style="normal" font-weight="normal" text-decoration="none" x="53" y="285.5">+getNotaEspanol(): double</text></g></g><g transform="translate(-38,-150) scale(1,1)"><g><path fill="none" stroke="none"/><text fill="#000000" stroke="none" font-family="Arial" font-size="13px" font-style="normal" font-weight="normal" text-decoration="none" x="53" y="300.5">+getNotaAptitud(): double</text></g></g><g transform="translate(-38,-150) scale(1,1)"><g><path fill="none" stroke="none"/><text fill="#000000" stroke="none" font-family="Arial" font-size="13px" font-style="normal" font-weight="normal" text-decoration="none" x="53" y="315.5">+setNotaMatematica(NotaMatematica: double)</text></g></g><g transform="translate(-38,-150) scale(1,1)"><g><path fill="none" stroke="none"/><text fill="#000000" stroke="none" font-family="Arial" font-size="13px" font-style="normal" font-weight="normal" text-decoration="none" x="53" y="330.5">+setNotaEspanol(NotaEspanol: double)</text></g></g><g transform="translate(-38,-150) scale(1,1)"><g><path fill="none" stroke="none"/><text fill="#000000" stroke="none" font-family="Arial" font-size="13px" font-style="normal" font-weight="normal" text-decoration="none" x="53" y="345.5">+setNotaAptitud(NotaAptitud: double)</text></g></g><g transform="translate(-38,-150) scale(1,1)"><g><path fill="none" stroke="none"/><text fill="#000000" stroke="none" font-family="Arial" font-size="13px" font-style="normal" font-weight="normal" text-decoration="none" x="53" y="360.5">+escalafon(): double</text></g></g><g transform="translate(-38,-150) scale(1,1)"><g><path fill="none" stroke="none"/><text fill="#000000" stroke="none" font-family="Arial" font-size="13px" font-style="normal" font-weight="normal" text-decoration="none" x="53" y="375.5">+toString(): String</text></g></g><g transform="translate(-38,-150) scale(1,1)"><rect fill="#C0C0C0" stroke="none" x="231" y="607" width="626.474609375" height="87" opacity="0.2"/></g><g transform="translate(-38,-150) scale(1,1)"><rect fill="#9bff38" stroke="none" x="224" y="600" width="626.474609375" height="87"/></g><g transform="translate(-38,-150) scale(1,1)"><path fill="none" stroke="#000000" d="M 224 600 L 850.474609375 600 L 850.474609375 687 L 224 687 L 224 600 Z Z" stroke-miterlimit="10"/></g><g transform="translate(-38,-150) scale(1,1)"><path fill="none" stroke="#000000" d="M 224 625 L 850.474609375 625" stroke-miterlimit="10"/></g><g transform="translate(-38,-150) scale(1,1)"><path fill="none" stroke="#000000" d="M 224 635 L 850.474609375 635" stroke-miterlimit="10"/></g><g transform="translate(-38,-150) scale(1,1)"><g><path fill="none" stroke="none"/><text fill="#000000" stroke="none" font-family="Arial" font-size="13px" font-style="normal" font-weight="bold" text-decoration="none" x="511.583251953125" y="619.5">Bachelor</text></g></g><g transform="translate(-38,-150) scale(1,1)"><g><path fill="none" stroke="none"/><text fill="#000000" stroke="none" font-family="Arial" font-size="13px" font-style="normal" font-weight="normal" text-decoration="none" x="229" y="652.5">«create»+Bachelor(Name: String, DPI: String, Type: boolean, Desvinculado: boolean, NotaHistoria: double)</text></g></g><g transform="translate(-38,-150) scale(1,1)"><g><path fill="none" stroke="none"/><text fill="#000000" stroke="none" font-family="Arial" font-size="13px" font-style="normal" font-weight="normal" text-decoration="none" x="229" y="667.5">+escalafon(): double</text></g></g><g transform="translate(-38,-150) scale(1,1)"><g><path fill="none" stroke="none"/><text fill="#000000" stroke="none" font-family="Arial" font-size="13px" font-style="normal" font-weight="normal" text-decoration="none" x="229" y="682.5">+toString(): String</text></g></g><g transform="translate(-38,-150) scale(1,1)"><path fill="none" stroke="#000000" d="M 1436 503 L 1280 264 L 1082 266" stroke-miterlimit="10"/></g><g transform="translate(-38,-150) scale(1,1)"><path fill="#FFFFFF" stroke="none" d="M 1102.239276468048 257.3760978640803 L 1082 266 L 1102.409349317464 274.21330995626806"/></g><g transform="translate(-38,-150) scale(1,1)"><path fill="none" stroke="#000000" d="M 1102.239276468048 257.3760978640803 L 1082 266 L 1102.409349317464 274.21330995626806 L 1102.239276468048 257.3760978640803" stroke-miterlimit="10"/></g><g transform="translate(-38,-150) scale(1,1)"><g><path fill="none" stroke="none"/><text fill="#000000" stroke="none" font-family="Arial" font-size="13px" font-style="normal" font-weight="normal" text-decoration="none" x="1239.5" y="292.5">+es de</text></g></g><g transform="translate(-38,-150) scale(1,1)"><path fill="none" stroke="#000000" d="M 1223 649 L 851 646" stroke-miterlimit="10"/></g><g transform="translate(-38,-150) scale(1,1)"><path fill="#FFFFFF" stroke="none" d="M 871.3925820434382 637.7451470272547 L 851 646 L 871.2567955635443 654.582670534092"/></g><g transform="translate(-38,-150) scale(1,1)"><path fill="none" stroke="#000000" d="M 871.3925820434382 637.7451470272547 L 851 646 L 871.2567955635443 654.582670534092 L 871.3925820434382 637.7451470272547" stroke-miterlimit="10"/></g><g transform="translate(-38,-150) scale(1,1)"><g><path fill="none" stroke="none"/><text fill="#000000" stroke="none" font-family="Arial" font-size="13px" font-style="normal" font-weight="normal" text-decoration="none" x="1016.5" y="667.5">+es de</text></g></g><g transform="translate(-38,-150) scale(1,1)"><path fill="none" stroke="#000000" d="M 1015 491 L 560 488 L 562 381" stroke-miterlimit="10" stroke-dasharray="3"/></g><g transform="translate(-38,-150) scale(1,1)"><path fill="#FFFFFF" stroke="none" d="M 570.0377184649408 401.47913772301825 L 562 381 L 553.2025880750285 401.1644623886274"/></g><g transform="translate(-38,-150) scale(1,1)"><path fill="none" stroke="#000000" d="M 570.0377184649408 401.47913772301825 L 562 381 L 553.2025880750285 401.1644623886274 L 570.0377184649408 401.47913772301825" stroke-miterlimit="10"/></g><g transform="translate(-38,-150) scale(1,1)"><path fill="none" stroke="#000000" d="M 1015 491 L 536 488 L 537 599" stroke-miterlimit="10" stroke-dasharray="3"/></g><g transform="translate(-38,-150) scale(1,1)"><path fill="#FFFFFF" stroke="none" d="M 528.3982022927888 578.7513191490355 L 537 599 L 545.2355900506352 578.5996309710368"/></g><g transform="translate(-38,-150) scale(1,1)"><path fill="none" stroke="#000000" d="M 528.3982022927888 578.7513191490355 L 537 599 L 545.2355900506352 578.5996309710368 L 528.3982022927888 578.7513191490355" stroke-miterlimit="10"/></g><g transform="translate(-38,-150) scale(1,1)"><rect fill="#C0C0C0" stroke="none" x="2079" y="551" width="1162.6611328125" height="216" opacity="0.2"/></g><g transform="translate(-38,-150) scale(1,1)"><rect fill="#00ffd4" stroke="none" x="2072" y="544" width="1162.6611328125" height="216"/></g><g transform="translate(-38,-150) scale(1,1)"><path fill="none" stroke="#000000" d="M 2072 544 L 3234.6611328125 544 L 3234.6611328125 760 L 2072 760 L 2072 544 Z Z" stroke-miterlimit="10"/></g><g transform="translate(-38,-150) scale(1,1)"><path fill="none" stroke="#000000" d="M 2072 569 L 3234.6611328125 569" stroke-miterlimit="10"/></g><g transform="translate(-38,-150) scale(1,1)"><path fill="none" stroke="#000000" d="M 2072 579 L 3234.6611328125 579" stroke-miterlimit="10"/></g><g transform="translate(-38,-150) scale(1,1)"><g><path fill="none" stroke="none"/><text fill="#000000" stroke="none" font-family="Arial" font-size="13px" font-style="normal" font-weight="bold" text-decoration="none" x="2625.87060546875" y="563.5">Evaluator</text></g></g><g transform="translate(-38,-150) scale(1,1)"><g><path fill="none" stroke="none"/><text fill="#000000" stroke="none" font-family="Arial" font-size="13px" font-style="normal" font-weight="normal" text-decoration="none" x="2077" y="596.5">«create»+Evaluator()</text></g></g><g transform="translate(-38,-150) scale(1,1)"><g><path fill="none" stroke="none"/><text fill="#000000" stroke="none" font-family="Arial" font-size="13px" font-style="normal" font-weight="normal" text-decoration="none" x="2077" y="611.5">+Organize(): ArrayList&lt;Aspirer&gt;</text></g></g><g transform="translate(-38,-150) scale(1,1)"><g><path fill="none" stroke="none"/><text fill="#000000" stroke="none" font-family="Arial" font-size="13px" font-style="normal" font-weight="normal" text-decoration="none" x="2077" y="626.5">+AddSecondary(Name: String, DPI: String, Type: boolean, Desvinculado: boolean, NotaHistoria: double, NotaMatematica: double, NotaEspanol: double, NotaAptitud: double)</text></g></g><g transform="translate(-38,-150) scale(1,1)"><g><path fill="none" stroke="none"/><text fill="#000000" stroke="none" font-family="Arial" font-size="13px" font-style="normal" font-weight="normal" text-decoration="none" x="2077" y="641.5">+AddBachelor(Name: String, DPI: String, Type: boolean, Desvinculado: boolean, NotaHistoria)</text></g></g><g transform="translate(-38,-150) scale(1,1)"><g><path fill="none" stroke="none"/><text fill="#000000" stroke="none" font-family="Arial" font-size="13px" font-style="normal" font-weight="normal" text-decoration="none" x="2077" y="656.5">+DisplayAspirers(): String</text></g></g><g transform="translate(-38,-150) scale(1,1)"><g><path fill="none" stroke="none"/><text fill="#000000" stroke="none" font-family="Arial" font-size="13px" font-style="normal" font-weight="normal" text-decoration="none" x="2077" y="671.5">+FindAspirer(position: int)</text></g></g><g transform="translate(-38,-150) scale(1,1)"><g><path fill="none" stroke="none"/><text fill="#000000" stroke="none" font-family="Arial" font-size="13px" font-style="normal" font-weight="normal" text-decoration="none" x="2077" y="686.5">+ModifySecondary(position: int, modifier: int, Name: String, DPI: String, Type: boolean, Desvinculado: double, NotaHistoria: double, NotaMatematica: double, NotaEspanol: double, NotaAptitud: double)</text></g></g><g transform="translate(-38,-150) scale(1,1)"><g><path fill="none" stroke="none"/><text fill="#000000" stroke="none" font-family="Arial" font-size="13px" font-style="normal" font-weight="normal" text-decoration="none" x="2077" y="701.5">+ModifyBachelor(position: int, modifier: int, Name: String, DPI: String, Type: boolean, Desvinculado: boolean, NotaHistoria: double)</text></g></g><g transform="translate(-38,-150) scale(1,1)"><g><path fill="none" stroke="none"/><text fill="#000000" stroke="none" font-family="Arial" font-size="13px" font-style="normal" font-weight="normal" text-decoration="none" x="2077" y="716.5">+DeleteAspirer(position: int)</text></g></g><g transform="translate(-38,-150) scale(1,1)"><g><path fill="none" stroke="none"/><text fill="#000000" stroke="none" font-family="Arial" font-size="13px" font-style="normal" font-weight="normal" text-decoration="none" x="2077" y="731.5">+BetterThan(grade: double): String</text></g></g><g transform="translate(-38,-150) scale(1,1)"><g><path fill="none" stroke="none"/><text fill="#000000" stroke="none" font-family="Arial" font-size="13px" font-style="normal" font-weight="normal" text-decoration="none" x="2077" y="746.5">+High80(): String</text></g></g><g transform="translate(-38,-150) scale(1,1)"><path fill="none" stroke="#000000" d="M 2071 651 L 1841 651" stroke-miterlimit="10"/></g><g transform="translate(-38,-150) scale(1,1)"><path fill="#FFFFFF" stroke="none" d="M 1851.162674857624 646.790482243984 L 1841 651 L 1851.162674857624 655.209517756016 L 1863 651"/></g><g transform="translate(-38,-150) scale(1,1)"><path fill="none" stroke="#000000" d="M 1851.162674857624 646.790482243984 L 1841 651 L 1851.162674857624 655.209517756016 L 1863 651 L 1851.162674857624 646.790482243984" stroke-miterlimit="10"/></g><g transform="translate(-38,-150) scale(1,1)"><g><path fill="none" stroke="none"/><text fill="#000000" stroke="none" font-family="Arial" font-size="13px" font-style="normal" font-weight="normal" text-decoration="none" x="1937.5" y="672.5">+tiene</text></g></g><g transform="translate(-38,-150) scale(1,1)"><rect fill="#C0C0C0" stroke="none" x="3607" y="623" width="165.09521484375" height="160" opacity="0.2"/></g><g transform="translate(-38,-150) scale(1,1)"><rect fill="#ff8056" stroke="none" x="3600" y="616" width="165.09521484375" height="160"/></g><g transform="translate(-38,-150) scale(1,1)"><path fill="none" stroke="#000000" d="M 3600 616 L 3765.09521484375 616 L 3765.09521484375 776 L 3600 776 L 3600 616 Z Z" stroke-miterlimit="10"/></g><g transform="translate(-38,-150) scale(1,1)"><path fill="none" stroke="#000000" d="M 3600 641 L 3765.09521484375 641" stroke-miterlimit="10"/></g><g transform="translate(-38,-150) scale(1,1)"><path fill="none" stroke="#000000" d="M 3600 754 L 3765.09521484375 754" stroke-miterlimit="10"/></g><g transform="translate(-38,-150) scale(1,1)"><g><path fill="none" stroke="none"/><text fill="#000000" stroke="none" font-family="Arial" font-size="13px" font-style="normal" font-weight="bold" text-decoration="none" x="3670.99169921875" y="635.5">GUI</text></g></g><g transform="translate(-38,-150) scale(1,1)"><g><path fill="none" stroke="none"/><text fill="#000000" stroke="none" font-family="Arial" font-size="13px" font-style="normal" font-weight="normal" text-decoration="none" x="3605" y="658.5">-panel: JPanel</text></g></g><g transform="translate(-38,-150) scale(1,1)"><g><path fill="none" stroke="none"/><text fill="#000000" stroke="none" font-family="Arial" font-size="13px" font-style="normal" font-weight="normal" text-decoration="none" x="3605" y="673.5">-textfield: JTextField</text></g></g><g transform="translate(-38,-150) scale(1,1)"><g><path fill="none" stroke="none"/><text fill="#000000" stroke="none" font-family="Arial" font-size="13px" font-style="normal" font-weight="normal" text-decoration="none" x="3605" y="688.5">-frame: JFrame</text></g></g><g transform="translate(-38,-150) scale(1,1)"><g><path fill="none" stroke="none"/><text fill="#000000" stroke="none" font-family="Arial" font-size="13px" font-style="normal" font-weight="normal" text-decoration="none" x="3605" y="703.5">-label: JLabel</text></g></g><g transform="translate(-38,-150) scale(1,1)"><g><path fill="none" stroke="none"/><text fill="#000000" stroke="none" font-family="Arial" font-size="13px" font-style="normal" font-weight="normal" text-decoration="none" x="3605" y="718.5">-button: JButton</text></g></g><g transform="translate(-38,-150) scale(1,1)"><g><path fill="none" stroke="none"/><text fill="#000000" stroke="none" font-family="Arial" font-size="13px" font-style="normal" font-weight="normal" text-decoration="none" x="3605" y="733.5">-combobox: JComboBox</text></g></g><g transform="translate(-38,-150) scale(1,1)"><g><path fill="none" stroke="none"/><text fill="#000000" stroke="none" font-family="Arial" font-size="13px" font-style="normal" font-weight="normal" text-decoration="none" x="3605" y="748.5">-radioButton: JRadioButton</text></g></g><g transform="translate(-38,-150) scale(1,1)"><g><path fill="none" stroke="none"/><text fill="#000000" stroke="none" font-family="Arial" font-size="13px" font-style="normal" font-weight="normal" text-decoration="none" x="3605" y="771.5">«create»+GUI()</text></g></g><g transform="translate(-38,-150) scale(1,1)"><rect fill="#C0C0C0" stroke="none" x="3447" y="383" width="115.58984375" height="57" opacity="0.2"/></g><g transform="translate(-38,-150) scale(1,1)"><rect fill="#ffebd8" stroke="none" x="3440" y="376" width="115.58984375" height="57"/></g><g transform="translate(-38,-150) scale(1,1)"><path fill="none" stroke="#000000" d="M 3440 376 L 3555.58984375 376 L 3555.58984375 433 L 3440 433 L 3440 376 Z Z" stroke-miterlimit="10"/></g><g transform="translate(-38,-150) scale(1,1)"><path fill="none" stroke="#000000" d="M 3440 401 L 3555.58984375 401" stroke-miterlimit="10"/></g><g transform="translate(-38,-150) scale(1,1)"><path fill="none" stroke="#000000" d="M 3440 411 L 3555.58984375 411" stroke-miterlimit="10"/></g><g transform="translate(-38,-150) scale(1,1)"><g><path fill="none" stroke="none"/><text fill="#000000" stroke="none" font-family="Arial" font-size="13px" font-style="normal" font-weight="bold" text-decoration="none" x="3477.92041015625" y="395.5">JPanel</text></g></g><g transform="translate(-38,-150) scale(1,1)"><g><path fill="none" stroke="none"/><text fill="#000000" stroke="none" font-family="Arial" font-size="13px" font-style="normal" font-weight="normal" text-decoration="none" x="3445" y="428.5">«create»+JPanel()</text></g></g><g transform="translate(-38,-150) scale(1,1)"><rect fill="#C0C0C0" stroke="none" x="4031" y="415" width="135.80078125" height="57" opacity="0.2"/></g><g transform="translate(-38,-150) scale(1,1)"><rect fill="#ffe2d8" stroke="none" x="4024" y="408" width="135.80078125" height="57"/></g><g transform="translate(-38,-150) scale(1,1)"><path fill="none" stroke="#000000" d="M 4024 408 L 4159.80078125 408 L 4159.80078125 465 L 4024 465 L 4024 408 Z Z" stroke-miterlimit="10"/></g><g transform="translate(-38,-150) scale(1,1)"><path fill="none" stroke="#000000" d="M 4024 433 L 4159.80078125 433" stroke-miterlimit="10"/></g><g transform="translate(-38,-150) scale(1,1)"><path fill="none" stroke="#000000" d="M 4024 443 L 4159.80078125 443" stroke-miterlimit="10"/></g><g transform="translate(-38,-150) scale(1,1)"><g><path fill="none" stroke="none"/><text fill="#000000" stroke="none" font-family="Arial" font-size="13px" font-style="normal" font-weight="bold" text-decoration="none" x="4061.92041015625" y="427.5">JTextField</text></g></g><g transform="translate(-38,-150) scale(1,1)"><g><path fill="none" stroke="none"/><text fill="#000000" stroke="none" font-family="Arial" font-size="13px" font-style="normal" font-weight="normal" text-decoration="none" x="4029" y="460.5">«create»+JTextField()</text></g></g><g transform="translate(-38,-150) scale(1,1)"><rect fill="#C0C0C0" stroke="none" x="4047" y="623" width="119.89990234375" height="57" opacity="0.2"/></g><g transform="translate(-38,-150) scale(1,1)"><rect fill="#ffe2d8" stroke="none" x="4040" y="616" width="119.89990234375" height="57"/></g><g transform="translate(-38,-150) scale(1,1)"><path fill="none" stroke="#000000" d="M 4040 616 L 4159.89990234375 616 L 4159.89990234375 673 L 4040 673 L 4040 616 Z Z" stroke-miterlimit="10"/></g><g transform="translate(-38,-150) scale(1,1)"><path fill="none" stroke="#000000" d="M 4040 641 L 4159.89990234375 641" stroke-miterlimit="10"/></g><g transform="translate(-38,-150) scale(1,1)"><path fill="none" stroke="#000000" d="M 4040 651 L 4159.89990234375 651" stroke-miterlimit="10"/></g><g transform="translate(-38,-150) scale(1,1)"><g><path fill="none" stroke="none"/><text fill="#000000" stroke="none" font-family="Arial" font-size="13px" font-style="normal" font-weight="bold" text-decoration="none" x="4077.92041015625" y="635.5">JFrame</text></g></g><g transform="translate(-38,-150) scale(1,1)"><g><path fill="none" stroke="none"/><text fill="#000000" stroke="none" font-family="Arial" font-size="13px" font-style="normal" font-weight="normal" text-decoration="none" x="4045" y="668.5">«create»+JFrame()</text></g></g><g transform="translate(-38,-150) scale(1,1)"><rect fill="#C0C0C0" stroke="none" x="4047" y="519" width="114.14892578125" height="57" opacity="0.2"/></g><g transform="translate(-38,-150) scale(1,1)"><rect fill="#ffe2d8" stroke="none" x="4040" y="512" width="114.14892578125" height="57"/></g><g transform="translate(-38,-150) scale(1,1)"><path fill="none" stroke="#000000" d="M 4040 512 L 4154.14892578125 512 L 4154.14892578125 569 L 4040 569 L 4040 512 Z Z" stroke-miterlimit="10"/></g><g transform="translate(-38,-150) scale(1,1)"><path fill="none" stroke="#000000" d="M 4040 537 L 4154.14892578125 537" stroke-miterlimit="10"/></g><g transform="translate(-38,-150) scale(1,1)"><path fill="none" stroke="#000000" d="M 4040 547 L 4154.14892578125 547" stroke-miterlimit="10"/></g><g transform="translate(-38,-150) scale(1,1)"><g><path fill="none" stroke="none"/><text fill="#000000" stroke="none" font-family="Arial" font-size="13px" font-style="normal" font-weight="bold" text-decoration="none" x="4077.92041015625" y="531.5">JLabel</text></g></g><g transform="translate(-38,-150) scale(1,1)"><g><path fill="none" stroke="none"/><text fill="#000000" stroke="none" font-family="Arial" font-size="13px" font-style="normal" font-weight="normal" text-decoration="none" x="4045" y="564.5">«create»+JLabel()</text></g></g><g transform="translate(-38,-150) scale(1,1)"><rect fill="#C0C0C0" stroke="none" x="4031" y="719" width="119.92529296875" height="57" opacity="0.2"/></g><g transform="translate(-38,-150) scale(1,1)"><rect fill="#ffe2d8" stroke="none" x="4024" y="712" width="119.92529296875" height="57"/></g><g transform="translate(-38,-150) scale(1,1)"><path fill="none" stroke="#000000" d="M 4024 712 L 4143.92529296875 712 L 4143.92529296875 769 L 4024 769 L 4024 712 Z Z" stroke-miterlimit="10"/></g><g transform="translate(-38,-150) scale(1,1)"><path fill="none" stroke="#000000" d="M 4024 737 L 4143.92529296875 737" stroke-miterlimit="10"/></g><g transform="translate(-38,-150) scale(1,1)"><path fill="none" stroke="#000000" d="M 4024 747 L 4143.92529296875 747" stroke-miterlimit="10"/></g><g transform="translate(-38,-150) scale(1,1)"><g><path fill="none" stroke="none"/><text fill="#000000" stroke="none" font-family="Arial" font-size="13px" font-style="normal" font-weight="bold" text-decoration="none" x="4061.92041015625" y="731.5">JButton</text></g></g><g transform="translate(-38,-150) scale(1,1)"><g><path fill="none" stroke="none"/><text fill="#000000" stroke="none" font-family="Arial" font-size="13px" font-style="normal" font-weight="normal" text-decoration="none" x="4029" y="764.5">«create»+JButton()</text></g></g><g transform="translate(-38,-150) scale(1,1)"><rect fill="#C0C0C0" stroke="none" x="3855" y="383" width="146.64892578125" height="57" opacity="0.2"/></g><g transform="translate(-38,-150) scale(1,1)"><rect fill="#ffe2d8" stroke="none" x="3848" y="376" width="146.64892578125" height="57"/></g><g transform="translate(-38,-150) scale(1,1)"><path fill="none" stroke="#000000" d="M 3848 376 L 3994.64892578125 376 L 3994.64892578125 433 L 3848 433 L 3848 376 Z Z" stroke-miterlimit="10"/></g><g transform="translate(-38,-150) scale(1,1)"><path fill="none" stroke="#000000" d="M 3848 401 L 3994.64892578125 401" stroke-miterlimit="10"/></g><g transform="translate(-38,-150) scale(1,1)"><path fill="none" stroke="#000000" d="M 3848 411 L 3994.64892578125 411" stroke-miterlimit="10"/></g><g transform="translate(-38,-150) scale(1,1)"><g><path fill="none" stroke="none"/><text fill="#000000" stroke="none" font-family="Arial" font-size="13px" font-style="normal" font-weight="bold" text-decoration="none" x="3885.92041015625" y="395.5">JComboBox</text></g></g><g transform="translate(-38,-150) scale(1,1)"><g><path fill="none" stroke="none"/><text fill="#000000" stroke="none" font-family="Arial" font-size="13px" font-style="normal" font-weight="normal" text-decoration="none" x="3853" y="428.5">«create»+JComboBox()</text></g></g><g transform="translate(-38,-150) scale(1,1)"><rect fill="#C0C0C0" stroke="none" x="3639" y="367" width="153.8916015625" height="57" opacity="0.2"/></g><g transform="translate(-38,-150) scale(1,1)"><rect fill="#ffe2d8" stroke="none" x="3632" y="360" width="153.8916015625" height="57"/></g><g transform="translate(-38,-150) scale(1,1)"><path fill="none" stroke="#000000" d="M 3632 360 L 3785.8916015625 360 L 3785.8916015625 417 L 3632 417 L 3632 360 Z Z" stroke-miterlimit="10"/></g><g transform="translate(-38,-150) scale(1,1)"><path fill="none" stroke="#000000" d="M 3632 385 L 3785.8916015625 385" stroke-miterlimit="10"/></g><g transform="translate(-38,-150) scale(1,1)"><path fill="none" stroke="#000000" d="M 3632 395 L 3785.8916015625 395" stroke-miterlimit="10"/></g><g transform="translate(-38,-150) scale(1,1)"><g><path fill="none" stroke="none"/><text fill="#000000" stroke="none" font-family="Arial" font-size="13px" font-style="normal" font-weight="bold" text-decoration="none" x="3669.92041015625" y="379.5">JRadioButton</text></g></g><g transform="translate(-38,-150) scale(1,1)"><g><path fill="none" stroke="none"/><text fill="#000000" stroke="none" font-family="Arial" font-size="13px" font-style="normal" font-weight="normal" text-decoration="none" x="3637" y="412.5">«create»+JRadioButton()</text></g></g><g transform="translate(-38,-150) scale(1,1)"><path fill="none" stroke="#000000" d="M 3631 615 L 3516 434" stroke-miterlimit="10" stroke-dasharray="3"/></g><g transform="translate(-38,-150) scale(1,1)"><path fill="none" stroke="#000000" d="M 3525.0029804161845 440.32031198801144 L 3516 434 L 3517.896933037236 444.83520396911115" stroke-miterlimit="10"/></g><g transform="translate(-38,-150) scale(1,1)"><g><path fill="none" stroke="none"/><text fill="#000000" stroke="none" font-family="Arial" font-size="13px" font-style="normal" font-weight="normal" text-decoration="none" x="3545.5" y="538.5">+usa</text></g></g><g transform="translate(-38,-150) scale(1,1)"><path fill="none" stroke="#000000" d="M 3689 615 L 3705 418" stroke-miterlimit="10" stroke-dasharray="3"/></g><g transform="translate(-38,-150) scale(1,1)"><path fill="none" stroke="#000000" d="M 3708.3730162338306 428.4700888958173 L 3705 418 L 3699.9816117941355 427.7885535098522" stroke-miterlimit="10"/></g><g transform="translate(-38,-150) scale(1,1)"><g><path fill="none" stroke="none"/><text fill="#000000" stroke="none" font-family="Arial" font-size="13px" font-style="normal" font-weight="normal" text-decoration="none" x="3667.5" y="520.5">+usa</text></g></g><g transform="translate(-38,-150) scale(1,1)"><path fill="none" stroke="#000000" d="M 3748 615 L 3896 434" stroke-miterlimit="10" stroke-dasharray="3"/></g><g transform="translate(-38,-150) scale(1,1)"><path fill="none" stroke="#000000" d="M 3892.8257665221927 444.5320578154683 L 3896 434 L 3886.3081884816065 439.20276748393945" stroke-miterlimit="10"/></g><g transform="translate(-38,-150) scale(1,1)"><g><path fill="none" stroke="none"/><text fill="#000000" stroke="none" font-family="Arial" font-size="13px" font-style="normal" font-weight="normal" text-decoration="none" x="3795.5" y="520.5">+usa</text></g></g><g transform="translate(-38,-150) scale(1,1)"><path fill="none" stroke="#000000" d="M 3766 643 L 4044 466" stroke-miterlimit="10" stroke-dasharray="3"/></g><g transform="translate(-38,-150) scale(1,1)"><path fill="none" stroke="#000000" d="M 4037.6882259280687 475.0089682020138 L 4044 466 L 4033.166599245282 467.9072042595579" stroke-miterlimit="10"/></g><g transform="translate(-38,-150) scale(1,1)"><g><path fill="none" stroke="none"/><text fill="#000000" stroke="none" font-family="Arial" font-size="13px" font-style="normal" font-weight="normal" text-decoration="none" x="3881.5" y="547.5">+usa</text></g></g><g transform="translate(-38,-150) scale(1,1)"><path fill="none" stroke="#000000" d="M 3766 664 L 4039 562" stroke-miterlimit="10" stroke-dasharray="3"/></g><g transform="translate(-38,-150) scale(1,1)"><path fill="none" stroke="#000000" d="M 4030.9534092015087 569.5001584331026 L 4039 562 L 4028.0067881929335 561.6136139689739" stroke-miterlimit="10"/></g><g transform="translate(-38,-150) scale(1,1)"><g><path fill="none" stroke="none"/><text fill="#000000" stroke="none" font-family="Arial" font-size="13px" font-style="normal" font-weight="normal" text-decoration="none" x="3881.5" y="604.5">+usa</text></g></g><g transform="translate(-38,-150) scale(1,1)"><path fill="none" stroke="#000000" d="M 3766 686 L 4039 651" stroke-miterlimit="10" stroke-dasharray="3"/></g><g transform="translate(-38,-150) scale(1,1)"><path fill="none" stroke="#000000" d="M 4029.455129590631 656.4676730762133 L 4039 651 L 4028.3845286984865 648.1169861174897" stroke-miterlimit="10"/></g><g transform="translate(-38,-150) scale(1,1)"><g><path fill="none" stroke="none"/><text fill="#000000" stroke="none" font-family="Arial" font-size="13px" font-style="normal" font-weight="normal" text-decoration="none" x="3885.5" y="659.5">+usa</text></g></g><g transform="translate(-38,-150) scale(1,1)"><path fill="none" stroke="#000000" d="M 3766 705 L 4023 733" stroke-miterlimit="10" stroke-dasharray="3"/></g><g transform="translate(-38,-150) scale(1,1)"><path fill="none" stroke="#000000" d="M 4012.4411822262236 736.0840504568164 L 4023 733 L 4013.3530353593137 727.7145413423862" stroke-miterlimit="10"/></g><g transform="translate(-38,-150) scale(1,1)"><g><path fill="none" stroke="none"/><text fill="#000000" stroke="none" font-family="Arial" font-size="13px" font-style="normal" font-weight="normal" text-decoration="none" x="3880.5" y="710.5">+usa</text></g></g><g transform="translate(-38,-150) scale(1,1)"><rect fill="#C0C0C0" stroke="none" x="3615" y="951" width="119.89990234375" height="57" opacity="0.2"/></g><g transform="translate(-38,-150) scale(1,1)"><rect fill="#9bff38" stroke="none" x="3608" y="944" width="119.89990234375" height="57"/></g><g transform="translate(-38,-150) scale(1,1)"><path fill="none" stroke="#000000" d="M 3608 944 L 3727.89990234375 944 L 3727.89990234375 1001 L 3608 1001 L 3608 944 Z Z" stroke-miterlimit="10"/></g><g transform="translate(-38,-150) scale(1,1)"><path fill="none" stroke="#000000" d="M 3608 969 L 3727.89990234375 969" stroke-miterlimit="10"/></g><g transform="translate(-38,-150) scale(1,1)"><path fill="none" stroke="#000000" d="M 3608 979 L 3727.89990234375 979" stroke-miterlimit="10"/></g><g transform="translate(-38,-150) scale(1,1)"><g><path fill="none" stroke="none"/><text fill="#000000" stroke="none" font-family="Arial" font-size="13px" font-style="normal" font-weight="bold" text-decoration="none" x="3644.463623046875" y="963.5">Execute</text></g></g><g transform="translate(-38,-150) scale(1,1)"><g><path fill="none" stroke="none"/><text fill="#000000" stroke="none" font-family="Arial" font-size="13px" font-style="normal" font-weight="normal" text-decoration="none" x="3613" y="996.5">+main(args: String)</text></g></g><g transform="translate(-38,-150) scale(1,1)"><path fill="none" stroke="#000000" d="M 3669 943 L 3678 777" stroke-miterlimit="10" stroke-dasharray="3"/></g><g transform="translate(-38,-150) scale(1,1)"><path fill="none" stroke="#000000" d="M 3681.653164119142 787.3756634447449 L 3678 777 L 3673.246475140344 786.9198791025209" stroke-miterlimit="10"/></g><g transform="translate(-38,-150) scale(1,1)"><g><path fill="none" stroke="none"/><text fill="#000000" stroke="none" font-family="Arial" font-size="13px" font-style="normal" font-weight="normal" text-decoration="none" x="3643.5" y="865.5">+usa</text></g></g><g transform="translate(-38,-150) scale(1,1)"><path fill="none" stroke="#000000" d="M 3599 692 L 3236 677" stroke-miterlimit="10" stroke-dasharray="3"/></g><g transform="translate(-38,-150) scale(1,1)"><path fill="none" stroke="#000000" d="M 3246.3278080933214 673.2136587597629 L 3236 677 L 3245.980210704439 681.6255155707231" stroke-miterlimit="10"/></g><g transform="translate(-38,-150) scale(1,1)"><g><path fill="none" stroke="none"/><text fill="#000000" stroke="none" font-family="Arial" font-size="13px" font-style="normal" font-weight="normal" text-decoration="none" x="3401.5" y="704.5">+usa</text></g></g></g></svg>